<svg xmlns="http://www.w3.org/2000/svg" width="700" height="480" viewBox="0 0 700 480" role="img"><rect width="700" height="480" fill="#f3efe5"/><text x="45" y="30" font-family="sans-serif" font-size="19" font-weight="700">Kaplica cmentarna</text><rect x="80" y="60" width="400" height="280" fill="#ddd6c8" stroke="#3d3934" stroke-width="8"/><rect x="220" y="75" width="120" height="55" fill="#9a8b78" stroke="#4c4338" stroke-width="4"/><text x="245" y="105" font-family="sans-serif">ołtarz / mechanizm</text><rect x="80" y="60" width="120" height="120" fill="#c6bba9" stroke="#4c4338" stroke-width="4"/><text x="100" y="85" font-family="sans-serif">zakrystia</text><path d="M105 115h55m-45 15h45m-35 15h35" stroke="#555" stroke-width="4"/><text x="95" y="205" font-family="sans-serif">schody w dół</text><g stroke="#765c3d" stroke-width="6"><line x1="220" y1="180" x2="330" y2="180"/><line x1="220" y1="230" x2="330" y2="230"/><line x1="220" y1="280" x2="330" y2="280"/></g><circle cx="385" cy="235" r="10" fill="#73534f"/><circle cx="420" cy="255" r="10" fill="#73534f"/><text x="365" y="290" font-family="sans-serif">dwa ciała</text><rect x="250" y="335" width="70" height="12" fill="#775b43"/><text x="230" y="375" font-family="sans-serif">wyjście na cmentarz</text><path d="M630 90V50m0 0l-8 14m8-14l8 14" stroke="#222" stroke-width="3" fill="none"/><text x="623" y="110">N</text></svg>

